<?xml version="1.0" encoding="UTF-8"?>
<svg idth="100%" height="100%" viewBox="0 0 24 24" version="1.1"
  xmlns="http://www.w3.org/2000/svg"
  xmlns:xlink="http://www.w3.org/1999/xlink">
  <g>
    <g>
      <path d="M18.5,4.6h-0.9V3.7h-1v0.9h-3V1.7h1v-1h-1V0H4.6v4.4H0V24h14v-4.4h4.6V4.6z M17.6,18.7H14V9h-0.9V8.1h-1V9h-3V6.1h1v-1h-1V4.4H5.4V0.9h7.4v4.6h4.8V18.7z M0.9,23.1V5.3h7.4v4.6h4.8v13.2L0.9,23.1z" />
      <rect x="14.7" y="1.7" width="1" height="1" />
      <rect x="15.7" y="2.7" width="1" height="1" />
      <rect x="10.2" y="6.1" width="1" height="1" />
      <rect x="11.1" y="7.1" width="1" height="1" />
      <rect x="2.8" y="12.1" width="7.9" height="0.9" />
      <rect x="2.8" y="14.8" width="7.9" height="0.9" />
      <rect x="2.8" y="17.4" width="7.9" height="0.9" />
      <rect x="2.8" y="20.1" width="7.9" height="0.9" />
    </g>
  </g>
</svg>