<?xml version="1.0" encoding="UTF-8"?>
<svg width="100%" height="100%" viewBox=" 0 0 24 24" version="1.1" xmlns="http://www.w3.org/2000/svg" xmlns:xlink="http://www.w3.org/1999/xlink">
  <g>
    <path
      d="M22.75,4.22H16.11V3.37A3.37,3.37,0,0,0,12.74,0H11.26A3.37,3.37,0,0,0,7.89,3.37v.85H1.25a1.25,1.25,0,0,0,0,2.5H2.69V19.87A4,4,0,0,0,6.57,24H17.43a4,4,0,0,0,3.88-4.13V6.72h1.44a1.25,1.25,0,0,0,0-2.5ZM10.39,3.37a.87.87,0,0,1,.87-.87h1.48a.87.87,0,0,1,.87.87v.85H10.39Zm8.42,16.5a1.52,1.52,0,0,1-1.38,1.63H6.57a1.52,1.52,0,0,1-1.38-1.63V6.72H18.81Z"
    />
    <path
      d="M9.53,10.37a1.25,1.25,0,0,0-1.25,1.25v5.79a1.25,1.25,0,0,0,2.5,0V11.62A1.25,1.25,0,0,0,9.53,10.37Z"
    />
    <path
      d="M13.22,11.62v5.79a1.25,1.25,0,0,0,2.5,0V11.62a1.25,1.25,0,0,0-2.5,0Z"
    />
  </g>
</svg>