<?xml version="1.0" encoding="UTF-8"?>
<svg width="100%" height="100%" viewBox="0 0 24 24" version="1.1" xmlns="http://www.w3.org/2000/svg" xmlns:xlink="http://www.w3.org/1999/xlink">
  <g>
    <path
      d="M23,7.75a1.25,1.25,0,0,0-.36-.88L17.13,1.35a1.27,1.27,0,0,0-1.77,0L13.48,3.23,13.24,3a1.25,1.25,0,0,0-1.77,1.77l.25.24L2.89,13.83a1.27,1.27,0,0,0-.34.62L1,21.5a1.25,1.25,0,0,0,.33,1.15,1.29,1.29,0,0,0,.89.36,1.15,1.15,0,0,0,.26,0l7.05-1.53a1.27,1.27,0,0,0,.62-.34L19,12.28l.24.25a1.24,1.24,0,0,0,.88.36,1.28,1.28,0,0,0,.89-.36,1.25,1.25,0,0,0,0-1.77l-.24-.24,1.88-1.88A1.29,1.29,0,0,0,23,7.75ZM8.66,19.09,5,19.88l-.9-.9.79-3.64,8.57-8.57,3.75,3.75ZM19,8.75,15.25,5l1-1L20,7.75Z"
    />
  </g>
</svg>