<?xml version="1.0" encoding="UTF-8"?>
<svg width="100%" height="100%" viewBox=" 0 0 24 24" version="1.1" xmlns="http://www.w3.org/2000/svg" xmlns:xlink="http://www.w3.org/1999/xlink">
  <g>
    <path
      fill="currentColor"
      d="M21.24,7a1.24,1.24,0,0,0-1.65.62L18.48,10,6.74,4.61l1.1-2.4a1.25,1.25,0,1,0-2.27-1l-1.37,3c-.07.14-.12.29-.18.44s-.06.07-.08.11A1.3,1.3,0,0,0,3.87,5a7.21,7.21,0,0,0,.38,5.26,3.54,3.54,0,0,1,0,3l-.69,1.51a1.8,1.8,0,0,0-.05,1.42A1.75,1.75,0,0,0,4,17l-1.82,4a1.85,1.85,0,0,0,1.64,2.62H8.25a1.83,1.83,0,0,0,1.62-1.09l1.06-2.36A1.92,1.92,0,0,0,12.84,19l.68-1.47a3.53,3.53,0,0,1,2.29-1.94A7.16,7.16,0,0,0,20,12.52a1.33,1.33,0,0,0,.26-.35s0-.08,0-.13.15-.27.22-.42l1.37-3A1.25,1.25,0,0,0,21.24,7ZM3.86,21.06h0Zm3.9,0H4.89l1.37-3,2.35,1.08Zm7.39-7.88a6,6,0,0,0-3.9,3.31l-.43.93,0,0h0L6.16,15.29h0l0,0,.43-.93a6,6,0,0,0,0-5.12,4.83,4.83,0,0,1-.44-2.17l11,5.05A4.77,4.77,0,0,1,15.15,13.18Z"
    />
  </g>
</svg>