<?xml version="1.0" encoding="UTF-8"?>
<svg width="100%" height="100%" viewBox="0 0 20 20" version="1.1" xmlns="http://www.w3.org/2000/svg" xmlns:xlink="http://www.w3.org/1999/xlink">
  <g>
    <path
      d="M18,18.5H7A5.51,5.51,0,0,1,1.5,13V7A5.51,5.51,0,0,1,7,1.5h6A5.51,5.51,0,0,1,18.5,7V18A.5.5,0,0,1,18,18.5ZM7,2.5A4.51,4.51,0,0,0,2.5,7v6A4.51,4.51,0,0,0,7,17.5H17.5V7A4.51,4.51,0,0,0,13,2.5Z"
    />
    <g>
      <path
        d="M13.5,8h-7a.5.5,0,0,1,0-1h7a.5.5,0,0,1,0,1Z"
      />
      <path
        d="M13.5,10.5h-7a.5.5,0,0,1,0-1h7a.5.5,0,0,1,0,1Z"
      />
      <path
        d="M10,13H6.5a.5.5,0,0,1,0-1H10a.5.5,0,0,1,0,1Z"
      />
    </g>
  </g>
</svg>